<svg id="Calque_1" data-name="Calque 1" xmlns="http://www.w3.org/2000/svg" xmlns:xlink="http://www.w3.org/1999/xlink" viewBox="0 0 772.43 205.02">
  <defs>
    <style>
      .cls-1 {
        fill: none;
      }

      .cls-2 {
        fill: #010101;
      }

      .cls-3 {
        clip-path: url(#clip-path);
      }

      .cls-4 {
        fill: url(#linear-gradient);
      }

      .cls-5 {
        clip-path: url(#clip-path-2);
      }

      .cls-6 {
        fill: url(#linear-gradient-2);
      }

      .cls-7 {
        clip-path: url(#clip-path-3);
      }

      .cls-8 {
        fill: url(#linear-gradient-3);
      }

      .cls-9 {
        clip-path: url(#clip-path-4);
      }

      .cls-10 {
        fill: url(#linear-gradient-4);
      }
    </style>
    <clipPath id="clip-path" transform="translate(258.42 -25.33)">
      <polygon class="cls-1" points="431.72 144.31 482.65 170.44 431.66 197.17 431.62 230.35 513.92 187.55 513.96 154.36 431.76 111.12 431.72 144.31"/>
    </clipPath>
    <linearGradient id="linear-gradient" x1="-291.11" y1="424.86" x2="-289.86" y2="424.86" gradientTransform="matrix(65.88, 0, 0, -65.88, 19868.6, 28135.43)" gradientUnits="userSpaceOnUse">
      <stop offset="0" stop-color="#66b4c6"/>
      <stop offset="0.02" stop-color="#66b4c6"/>
      <stop offset="1" stop-color="#3d6c74"/>
    </linearGradient>
    <clipPath id="clip-path-2" transform="translate(258.42 -25.33)">
      <polygon class="cls-1" points="431.71 111.42 431.67 144.61 513.87 187.61 513.91 154.43 462.98 127.58 513.97 101.57 514.01 68.38 431.71 111.42"/>
    </clipPath>
    <linearGradient id="linear-gradient-2" x1="-291.1" y1="424.99" x2="-289.85" y2="424.99" gradientTransform="matrix(65.88, 0, 0, -65.88, 19868.8, 28102.47)" gradientUnits="userSpaceOnUse">
      <stop offset="0" stop-color="#3d6c74"/>
      <stop offset="1" stop-color="#66b4c6"/>
    </linearGradient>
    <clipPath id="clip-path-3" transform="translate(258.42 -25.33)">
      <polygon class="cls-1" points="431.72 58.52 482.65 84.65 431.66 111.37 431.62 144.56 513.92 101.75 513.96 68.57 431.76 25.33 431.72 58.52"/>
    </clipPath>
    <linearGradient id="linear-gradient-3" x1="-291.11" y1="425.12" x2="-289.86" y2="425.12" gradientTransform="matrix(65.88, 0, 0, -65.88, 19868.6, 28066.79)" xlink:href="#linear-gradient"/>
    <clipPath id="clip-path-4" transform="translate(258.42 -25.33)">
      <polygon class="cls-1" points="431.72 58.52 513.92 101.75 514.01 68.38 431.76 25.33 431.72 58.52"/>
    </clipPath>
    <linearGradient id="linear-gradient-4" x1="-291.1" y1="425.19" x2="-289.85" y2="425.19" gradientTransform="matrix(65.84, 0, 0, -65.84, 19856.02, 28032.93)" xlink:href="#linear-gradient-2"/>
  </defs>
  <title>logoColor</title>
  <g>
    <polygon class="cls-2" points="286.26 188.63 292.97 192.16 292.97 196.53 282.13 190.88 282.13 186.51 292.97 180.82 292.97 185.19 286.26 188.63"/>
    <polygon class="cls-2" points="651.08 185.19 651.08 180.82 661.92 186.51 661.92 190.88 651.08 196.53 651.08 192.16 657.79 188.63 651.08 185.19"/>
    <g>
      <g class="cls-3">
        <rect class="cls-4" x="690.04" y="85.79" width="82.34" height="119.23"/>
      </g>
      <g class="cls-5">
        <rect class="cls-6" x="690.09" y="43.05" width="82.35" height="119.23"/>
      </g>
      <g class="cls-7">
        <rect class="cls-8" x="690.04" width="82.34" height="119.23"/>
      </g>
      <g class="cls-9">
        <rect class="cls-10" x="690.14" width="82.29" height="76.42"/>
      </g>
    </g>
    <polygon class="cls-2" points="212.93 178.11 215.6 186.33 224.25 186.33 217.25 191.41 219.92 199.64 212.93 194.56 205.93 199.64 208.6 191.41 201.61 186.33 210.25 186.33 212.93 178.11"/>
    <polygon class="cls-2" points="238.62 178.11 241.29 186.33 249.94 186.33 242.95 191.41 245.62 199.64 238.62 194.56 231.63 199.64 234.3 191.41 227.31 186.33 235.95 186.33 238.62 178.11"/>
    <polygon class="cls-2" points="264.28 178.11 266.96 186.33 275.6 186.33 268.61 191.41 271.28 199.64 264.28 194.56 257.29 199.64 259.96 191.41 252.96 186.33 261.61 186.33 264.28 178.11"/>
    <path class="cls-2" d="M-243.41,91.93l8.69,59.71h1.55l12.63-59.71H-204l12.63,59.71h1.55l8.69-59.71h15l-13.46,72.25h-21.63l-11.07-54.93-11.07,54.93H-245l-13.46-72.25Z" transform="translate(258.42 -25.33)"/>
    <path class="cls-2" d="M-144.06,91.93h45.54v12.75h-31.26v16.89h25v12.54h-25v17.32h31.26v12.75h-45.54Z" transform="translate(258.42 -25.33)"/>
    <path class="cls-2" d="M-46.67,91.93c14.18,0,21.94,5.31,21.94,19.12,0,8.18-2.17,12.32-7.76,15.94,6,2.66,9.11,7.12,9.11,16.47,0,14.45-8.8,20.72-22.87,20.72h-28V91.93ZM-60,104.46v17.21h12.73c5.59,0,8.07-3,8.07-8.71,0-5.95-2.79-8.5-8.18-8.5ZM-60,134v17.64h13c5.9,0,9.11-1.81,9.11-8.92,0-6-3.42-8.71-9.11-8.71Z" transform="translate(258.42 -25.33)"/>
    <path class="cls-2" d="M1.14,91.93H46.06v12.75H15.43v21.25h25v12.75h-25v25.5H1.14Z" transform="translate(258.42 -25.33)"/>
    <path class="cls-2" d="M65.41,128.48c0-24.44,7-37.82,29.19-37.82s29.19,13.39,29.19,37.82-7,37-29.19,37S65.41,152.91,65.41,128.48Zm43.68,0c0-16.68-2.9-25.07-14.49-25.07s-14.49,8.39-14.49,25.07S83,152.7,94.6,152.7,109.09,145.16,109.09,128.48Z" transform="translate(258.42 -25.33)"/>
    <path class="cls-2" d="M162.7,140v24.22H148.41V91.93h27.32c16,0,24.84,7.33,24.84,23.8,0,10-3.93,16.68-10.35,20.82l10,27.62H184.64L176.46,140Zm13-35.49h-13v22.95h13.25c7.14,0,10-5.1,10-11.48C186,109,182.57,104.46,175.74,104.46Z" transform="translate(258.42 -25.33)"/>
    <path class="cls-2" d="M269.61,163a113.3,113.3,0,0,1-20.49,2.44c-21.74,0-26.91-12.11-26.91-37.4,0-27.41,6-37.4,26.91-37.4,7.35,0,16.25,1.81,20.6,2.87l-.41,11.69a150.7,150.7,0,0,0-18.11-1.59c-10.87,0-14.28,3.93-14.28,24.44,0,19.44,2.48,24.44,14.7,24.44A153.13,153.13,0,0,0,269.3,151Z" transform="translate(258.42 -25.33)"/>
    <path class="cls-2" d="M293.62,91.93h45.54v12.75H307.9v16.89h25v12.54h-25v17.32h31.26v12.75H293.62Z" transform="translate(258.42 -25.33)"/>
    <path class="cls-2" d="M360.92,94.75a62,62,0,0,1,20.41-3.93c18.49,0,24.55,6.44,24.55,19.86,0,7.86-3.08,12.66-8.18,16.15,5.85,3.27,9.46,5.89,9.46,15.6,0,15.16-6.8,23-23.91,23-10.42,0-22.85-3.71-22.85-3.71l.74-11.46s11.9,2.07,20,2.07c7.23,0,10.95-2.95,10.95-9.6,0-5.35-4.14-8.84-10.2-8.84H367.72V121.48h14.14c4.78,0,8.93-4.91,8.93-9.82,0-5.13-3.29-7.75-10.52-7.75a115.16,115.16,0,0,0-18.39,2Z" transform="translate(258.42 -25.33)"/>
    <g>
      <path class="cls-2" d="M43.77,204.8a17.68,17.68,0,0,1,6.49-1.14q3.58,0,5.22,1.37a5.43,5.43,0,0,1,1.64,4.4,5.23,5.23,0,0,1-2.43,4.64,6.47,6.47,0,0,1,2.16,1.7,4.82,4.82,0,0,1,.65,2.81,6.71,6.71,0,0,1-1.69,5q-1.69,1.64-5.41,1.64a22.11,22.11,0,0,1-5.78-.82l-1-.25.22-3.31a36.5,36.5,0,0,0,5.93.6q3.25,0,3.25-2.78a2.3,2.3,0,0,0-.84-1.86,3.32,3.32,0,0,0-2.19-.69h-4.2v-3.6H50a2.43,2.43,0,0,0,1.85-.88,2.84,2.84,0,0,0,.81-2q0-2.24-3.12-2.24a26.37,26.37,0,0,0-4.64.44l-.82.13Z" transform="translate(258.42 -25.33)"/>
      <path class="cls-2" d="M71.92,224.87V203.41h7.42l3.79,15.65,3.79-15.65h7.42v21.46H90v-16.6H89.5l-4.2,15.65H80.95l-4.2-15.65h-.47v16.6Z" transform="translate(258.42 -25.33)"/>
      <path class="cls-2" d="M115.43,222.58q-2,2.67-6.9,2.67t-6.9-2.67q-2-2.67-2-8.35t2-8.44q2-2.76,6.9-2.76t6.9,2.76q2,2.76,2,8.44T115.43,222.58ZM105,219.8a4.5,4.5,0,0,0,7,0,12.06,12.06,0,0,0,.93-5.55,12.64,12.64,0,0,0-.95-5.66,4.29,4.29,0,0,0-6.94,0,12.64,12.64,0,0,0-.95,5.66A12.06,12.06,0,0,0,105,219.8Z" transform="translate(258.42 -25.33)"/>
      <path class="cls-2" d="M122.73,224.87V203.41h4.36v21.46Z" transform="translate(258.42 -25.33)"/>
      <path class="cls-2" d="M139.93,206.82q-3.44,0-3.44,2.27a1.72,1.72,0,0,0,.85,1.55,22.21,22.21,0,0,0,4,1.55,11,11,0,0,1,4.4,2.29A5.4,5.4,0,0,1,147,218.4a6.32,6.32,0,0,1-2.05,5.11,8,8,0,0,1-5.37,1.74,29.91,29.91,0,0,1-6-.76l-1.14-.22.44-3.38a52.61,52.61,0,0,0,6.47.57q3.34,0,3.35-2.78a1.85,1.85,0,0,0-.77-1.58,11,11,0,0,0-3.08-1.23,12.54,12.54,0,0,1-5.16-2.48,5.26,5.26,0,0,1-1.5-4,5.79,5.79,0,0,1,2-4.8,8.31,8.31,0,0,1,5.36-1.58,35.63,35.63,0,0,1,5.93.63l1.14.22-.35,3.44Q141.76,206.82,139.93,206.82Z" transform="translate(258.42 -25.33)"/>
      <path class="cls-2" d="M172.22,203.41h4.58l-5,21.46h-8l-5-21.46h4.58l3.72,17.67h1.42Z" transform="translate(258.42 -25.33)"/>
      <path class="cls-2" d="M181.21,224.87V203.41H195.1v3.79h-9.53v5h7.64v3.72h-7.64v5.14h9.53v3.79Z" transform="translate(258.42 -25.33)"/>
      <path class="cls-2" d="M204.63,217.67v7.2h-4.36V203.41h8.33q7.57,0,7.57,7.07a6.79,6.79,0,0,1-3.16,6.18l3.06,8.21h-4.77l-2.49-7.2ZM211,213a3.88,3.88,0,0,0,.76-2.49,3.6,3.6,0,0,0-.8-2.46,2.93,2.93,0,0,0-2.32-.92h-4v6.82h4A2.77,2.77,0,0,0,211,213Z" transform="translate(258.42 -25.33)"/>
      <path class="cls-2" d="M228,206.82q-3.44,0-3.44,2.27a1.72,1.72,0,0,0,.85,1.55,22.21,22.21,0,0,0,4,1.55,11,11,0,0,1,4.4,2.29,5.4,5.4,0,0,1,1.26,3.93,6.32,6.32,0,0,1-2.05,5.11,8,8,0,0,1-5.37,1.74,29.91,29.91,0,0,1-6-.76l-1.14-.22.44-3.38a52.61,52.61,0,0,0,6.47.57q3.34,0,3.35-2.78a1.85,1.85,0,0,0-.77-1.58,11,11,0,0,0-3.08-1.23,12.54,12.54,0,0,1-5.16-2.48,5.26,5.26,0,0,1-1.5-4,5.79,5.79,0,0,1,2-4.8,8.31,8.31,0,0,1,5.36-1.58,35.63,35.63,0,0,1,5.93.63l1.14.22-.35,3.44Q229.84,206.82,228,206.82Z" transform="translate(258.42 -25.33)"/>
      <path class="cls-2" d="M260.9,224.87H248.68V203.41H253V221h7.86Z" transform="translate(258.42 -25.33)"/>
      <path class="cls-2" d="M261.75,211.2l1.48-7.79h4.45L265,211.2Z" transform="translate(258.42 -25.33)"/>
      <path class="cls-2" d="M272.38,224.87V203.41h13.89v3.79h-9.53v5h7.64v3.72h-7.64v5.14h9.53v3.79Z" transform="translate(258.42 -25.33)"/>
      <path class="cls-2" d="M291.45,224.87V203.41h7.42l3.79,15.65,3.79-15.65h7.42v21.46H309.5v-16.6H309l-4.2,15.65h-4.36l-4.2-15.65h-.47v16.6Z" transform="translate(258.42 -25.33)"/>
      <path class="cls-2" d="M328,218.62h-3.53v6.25H320.1V203.41H328q7.64,0,7.64,7.45a8,8,0,0,1-1.94,5.76A7.58,7.58,0,0,1,328,218.62Zm-3.53-3.72H328q3.25,0,3.25-4a4.19,4.19,0,0,0-.79-2.86,3.17,3.17,0,0,0-2.46-.87h-3.5Z" transform="translate(258.42 -25.33)"/>
      <path class="cls-2" d="M352.48,224.87H340.27V203.41h4.36V221h7.86Z" transform="translate(258.42 -25.33)"/>
      <path class="cls-2" d="M371.4,222.58q-2,2.67-6.9,2.67t-6.9-2.67q-2-2.67-2-8.35t2-8.44q2-2.76,6.9-2.76t6.9,2.76q2,2.76,2,8.44T371.4,222.58ZM361,219.8a4.5,4.5,0,0,0,7,0,12.06,12.06,0,0,0,.93-5.55,12.64,12.64,0,0,0-.95-5.66,4.29,4.29,0,0,0-6.94,0,12.64,12.64,0,0,0-.95,5.66A12.06,12.06,0,0,0,361,219.8Z" transform="translate(258.42 -25.33)"/>
      <path class="cls-2" d="M378.71,224.87V203.41h4.36v21.46Z" transform="translate(258.42 -25.33)"/>
    </g>
  </g>
</svg>
