<svg id="Calque_1" data-name="Calque 1" xmlns="http://www.w3.org/2000/svg" viewBox="0 0 618.01 164.03">
  <defs>
    <style>
      .cls-1 {
        fill: #fff;
      }
    </style>
  </defs>
  <title>logoBlanc</title>
  <polygon class="cls-1" points="231.03 136.92 236.4 139.74 236.4 143.24 227.73 138.72 227.73 135.22 236.4 130.67 236.4 134.17 231.03 136.92"/>
  <polygon class="cls-1" points="522.91 134.17 522.91 130.67 531.59 135.22 531.59 138.72 522.91 143.24 522.91 139.74 528.29 136.92 522.91 134.17"/>
  <polygon class="cls-1" points="172.36 128.5 174.5 135.08 181.41 135.08 175.82 139.15 177.96 145.73 172.36 141.66 166.76 145.73 168.9 139.15 163.3 135.08 170.22 135.08 172.36 128.5"/>
  <polygon class="cls-1" points="192.92 128.5 195.06 135.08 201.97 135.08 196.38 139.15 198.51 145.73 192.92 141.66 187.32 145.73 189.46 139.15 183.86 135.08 190.78 135.08 192.92 128.5"/>
  <polygon class="cls-1" points="213.45 128.5 215.59 135.08 222.5 135.08 216.91 139.15 219.04 145.73 213.45 141.66 207.85 145.73 209.99 139.15 204.39 135.08 211.31 135.08 213.45 128.5"/>
  <path class="cls-1" d="M123.95,268.91l7,47.77h1.24l10.1-47.77H155.5l10.1,47.77h1.24l7-47.77h12L175,326.71H157.73l-8.86-43.95L140,326.71H122.71l-10.77-57.8Z" transform="translate(-111.94 -215.62)"/>
  <path class="cls-1" d="M203.44,268.91h36.44v10.2h-25v13.52h20v10h-20v13.86h25v10.2H203.44Z" transform="translate(-111.94 -215.62)"/>
  <path class="cls-1" d="M281.36,268.91c11.35,0,17.56,4.25,17.56,15.3,0,6.55-1.74,9.86-6.21,12.75,4.8,2.13,7.29,5.7,7.29,13.18,0,11.56-7,16.58-18.3,16.58H259.25v-57.8Zm-10.68,10v13.77h10.19c4.47,0,6.46-2.38,6.46-7,0-4.76-2.24-6.8-6.54-6.8Zm0,23.63v14.11h10.43c4.72,0,7.29-1.44,7.29-7.14,0-4.76-2.73-7-7.29-7Z" transform="translate(-111.94 -215.62)"/>
  <path class="cls-1" d="M319.61,268.91h35.94v10.2H331v17h20v10.2H331v20.4H319.61Z" transform="translate(-111.94 -215.62)"/>
  <path class="cls-1" d="M371,298.15c0-19.55,5.63-30.26,23.35-30.26s23.35,10.71,23.35,30.26-5.63,29.58-23.35,29.58S371,317.7,371,298.15Zm34.95,0c0-13.35-2.32-20.06-11.59-20.06s-11.59,6.72-11.59,20.06,2.32,19.38,11.59,19.38S406,311.5,406,298.15Z" transform="translate(-111.94 -215.62)"/>
  <path class="cls-1" d="M448.87,307.33v19.38H437.44v-57.8H459.3c12.84,0,19.88,5.87,19.88,19,0,8-3.15,13.35-8.28,16.66l8,22.1h-12.5l-6.54-19.38Zm10.43-28.39H448.87V297.3h10.6c5.71,0,8-4.08,8-9.18C467.5,282.59,464.77,278.94,459.3,278.94Z" transform="translate(-111.94 -215.62)"/>
  <path class="cls-1" d="M534.41,325.78a90.65,90.65,0,0,1-16.4,2c-17.39,0-21.53-9.69-21.53-29.92,0-21.93,4.8-29.92,21.53-29.92a78.05,78.05,0,0,1,16.48,2.3l-.33,9.35a120.57,120.57,0,0,0-14.49-1.27c-8.7,0-11.43,3.15-11.43,19.55,0,15.56,2,19.55,11.76,19.55a122.52,122.52,0,0,0,14.16-1.19Z" transform="translate(-111.94 -215.62)"/>
  <path class="cls-1" d="M553.62,268.91h36.44v10.2H565v13.52h20v10H565v13.86h25v10.2H553.62Z" transform="translate(-111.94 -215.62)"/>
  <path class="cls-1" d="M607.47,271.17A49.61,49.61,0,0,1,623.79,268c14.8,0,19.64,5.15,19.64,15.89,0,6.29-2.47,10.13-6.55,12.92,4.68,2.62,7.57,4.71,7.57,12.48,0,12.13-5.44,18.42-19.13,18.42-8.33,0-18.28-3-18.28-3l.6-9.17a117.64,117.64,0,0,0,16,1.66c5.78,0,8.76-2.36,8.76-7.68,0-4.28-3.32-7.07-8.16-7.07H612.91v-10h11.31c3.83,0,7.14-3.93,7.14-7.86,0-4.1-2.64-6.2-8.42-6.2a92.14,92.14,0,0,0-14.71,1.57Z" transform="translate(-111.94 -215.62)"/>
  <g>
    <path class="cls-1" d="M355.72,345.21a14.15,14.15,0,0,1,5.19-.91,6.47,6.47,0,0,1,4.18,1.1,4.34,4.34,0,0,1,1.31,3.52,4.18,4.18,0,0,1-1.94,3.71,5.18,5.18,0,0,1,1.73,1.36,3.85,3.85,0,0,1,.52,2.25,5.37,5.37,0,0,1-1.35,4,6,6,0,0,1-4.33,1.31,17.69,17.69,0,0,1-4.62-.66l-.81-.2.18-2.65a29.2,29.2,0,0,0,4.75.48q2.6,0,2.6-2.22a1.84,1.84,0,0,0-.67-1.49,2.66,2.66,0,0,0-1.75-.56h-3.36V351.4h3.36a2,2,0,0,0,1.48-.71,2.27,2.27,0,0,0,.64-1.57q0-1.79-2.5-1.79a21.1,21.1,0,0,0-3.71.35l-.66.1Z" transform="translate(-111.94 -215.62)"/>
    <path class="cls-1" d="M378.24,361.27V344.1h5.93l3,12.52,3-12.52h5.93v17.17h-3.48V348h-.38l-3.36,12.52h-3.48L382.1,348h-.38v13.28Z" transform="translate(-111.94 -215.62)"/>
    <path class="cls-1" d="M413,359.44q-1.6,2.13-5.52,2.13T402,359.44q-1.6-2.13-1.6-6.68T402,346q1.6-2.21,5.52-2.21T413,346q1.6,2.21,1.6,6.75T413,359.44Zm-8.31-2.22a3.6,3.6,0,0,0,5.58,0,9.65,9.65,0,0,0,.75-4.44,10.12,10.12,0,0,0-.76-4.53,3.43,3.43,0,0,0-5.55,0,10.12,10.12,0,0,0-.76,4.53A9.65,9.65,0,0,0,404.74,357.22Z" transform="translate(-111.94 -215.62)"/>
    <path class="cls-1" d="M418.89,361.27V344.1h3.49v17.17Z" transform="translate(-111.94 -215.62)"/>
    <path class="cls-1" d="M432.66,346.83q-2.75,0-2.75,1.82a1.38,1.38,0,0,0,.68,1.24,17.77,17.77,0,0,0,3.19,1.24A8.83,8.83,0,0,1,437.3,353a4.32,4.32,0,0,1,1,3.14,5.06,5.06,0,0,1-1.64,4.09,6.42,6.42,0,0,1-4.29,1.39,23.93,23.93,0,0,1-4.82-.61l-.91-.18.35-2.7a42.09,42.09,0,0,0,5.18.46q2.68,0,2.68-2.22a1.48,1.48,0,0,0-.62-1.26,8.77,8.77,0,0,0-2.46-1,10,10,0,0,1-4.13-2,4.21,4.21,0,0,1-1.2-3.19,4.64,4.64,0,0,1,1.57-3.84,6.65,6.65,0,0,1,4.29-1.26,28.5,28.5,0,0,1,4.75.51l.91.18-.28,2.75Q434.12,346.83,432.66,346.83Z" transform="translate(-111.94 -215.62)"/>
    <path class="cls-1" d="M458.49,344.1h3.66l-4,17.17h-6.44l-4-17.17h3.66l3,14.14h1.14Z" transform="translate(-111.94 -215.62)"/>
    <path class="cls-1" d="M465.68,361.27V344.1h11.11v3h-7.62v4h6.11v3h-6.11v4.12h7.63v3Z" transform="translate(-111.94 -215.62)"/>
    <path class="cls-1" d="M484.42,355.51v5.76h-3.49V344.1h6.67q6.06,0,6.06,5.66a5.43,5.43,0,0,1-2.53,4.95l2.45,6.57h-3.81l-2-5.76Zm5.08-3.74a3.1,3.1,0,0,0,.61-2,2.88,2.88,0,0,0-.64-2,2.34,2.34,0,0,0-1.86-.73h-3.18v5.45h3.23A2.22,2.22,0,0,0,489.49,351.78Z" transform="translate(-111.94 -215.62)"/>
    <path class="cls-1" d="M503.13,346.83q-2.75,0-2.75,1.82a1.38,1.38,0,0,0,.68,1.24,17.77,17.77,0,0,0,3.19,1.24,8.83,8.83,0,0,1,3.52,1.83,4.32,4.32,0,0,1,1,3.14,5.06,5.06,0,0,1-1.64,4.09,6.42,6.42,0,0,1-4.29,1.39A23.93,23.93,0,0,1,498,361l-.91-.18.35-2.7a42.09,42.09,0,0,0,5.18.46q2.68,0,2.68-2.22a1.48,1.48,0,0,0-.62-1.26,8.77,8.77,0,0,0-2.46-1,10,10,0,0,1-4.13-2,4.21,4.21,0,0,1-1.2-3.19,4.64,4.64,0,0,1,1.57-3.84,6.65,6.65,0,0,1,4.29-1.26,28.5,28.5,0,0,1,4.75.51l.91.18-.28,2.75Q504.59,346.83,503.13,346.83Z" transform="translate(-111.94 -215.62)"/>
    <path class="cls-1" d="M529.44,361.27h-9.77V344.1h3.49v14.09h6.29Z" transform="translate(-111.94 -215.62)"/>
    <path class="cls-1" d="M530.12,350.34l1.19-6.24h3.56l-2.15,6.24Z" transform="translate(-111.94 -215.62)"/>
    <path class="cls-1" d="M538.63,361.27V344.1h11.11v3h-7.62v4h6.11v3h-6.11v4.12h7.63v3Z" transform="translate(-111.94 -215.62)"/>
    <path class="cls-1" d="M553.88,361.27V344.1h5.93l3,12.52,3-12.52h5.93v17.17h-3.48V348h-.38l-3.36,12.52H561.1L557.74,348h-.38v13.28Z" transform="translate(-111.94 -215.62)"/>
    <path class="cls-1" d="M583.12,356.27h-2.83v5h-3.49V344.1h6.31q6.11,0,6.11,6a6.36,6.36,0,0,1-1.55,4.61A6.07,6.07,0,0,1,583.12,356.27Zm-2.83-3h2.8q2.6,0,2.6-3.23a3.36,3.36,0,0,0-.63-2.29,2.54,2.54,0,0,0-2-.69h-2.8Z" transform="translate(-111.94 -215.62)"/>
    <path class="cls-1" d="M602.71,361.27h-9.77V344.1h3.49v14.09h6.29Z" transform="translate(-111.94 -215.62)"/>
    <path class="cls-1" d="M617.85,359.44q-1.6,2.13-5.52,2.13t-5.52-2.13q-1.6-2.13-1.6-6.68t1.6-6.75q1.6-2.21,5.52-2.21t5.52,2.21q1.6,2.21,1.6,6.75T617.85,359.44Zm-8.31-2.22a3.6,3.6,0,0,0,5.58,0,9.65,9.65,0,0,0,.75-4.44,10.12,10.12,0,0,0-.76-4.53,3.43,3.43,0,0,0-5.55,0,10.12,10.12,0,0,0-.76,4.53A9.65,9.65,0,0,0,609.54,357.22Z" transform="translate(-111.94 -215.62)"/>
    <path class="cls-1" d="M623.7,361.27V344.1h3.49v17.17Z" transform="translate(-111.94 -215.62)"/>
  </g>
  <polygon class="cls-1" points="552.2 0 552.17 26.55 589.72 46.3 617.94 60.92 618.01 34.45 552.2 0"/>
  <polygon class="cls-1" points="578.94 81.58 617.11 61.58 591.35 48.23 553.24 68.25 578.94 81.58"/>
  <g>
    <polygon class="cls-1" points="591.22 116.99 552.12 137.48 552.09 164.03 616.95 130.33 591.22 116.99"/>
    <polygon class="cls-1" points="592.26 116.45 617.89 129.73 617.93 103.29 577.87 82.14 577.9 82.12 552.2 68.8 552.12 68.84 552.09 95.39 592.28 116.44 592.26 116.45"/>
  </g>
</svg>
